<svg width="91" height="17" viewBox="0 0 91 17" fill="none" xmlns="http://www.w3.org/2000/svg">
<path d="M10.64 4.624C10.64 6.016 10.232 7.144 9.41603 8.008C8.60003 8.856 7.50403 9.28 6.12803 9.28C5.61603 9.28 5.16803 9.2 4.78403 9.04C4.40003 8.864 4.20803 8.576 4.20803 8.176C5.42403 8.176 6.32003 7.896 6.89603 7.336C7.47203 6.776 7.76003 5.904 7.76003 4.72C7.76003 3.712 7.51203 2.968 7.01603 2.488C6.53603 1.992 5.79203 1.744 4.78403 1.744C4.28803 1.744 3.77603 1.784 3.24803 1.864V16H0.440031V0.256C2.32803 0.127999 3.83203 0.0639992 4.95203 0.0639992C6.77603 0.0639992 8.17603 0.423999 9.15203 1.144C10.144 1.848 10.64 3.008 10.64 4.624ZM12.3228 0.159999H15.1308V14.224H20.3628L20.1948 16H12.3228V0.159999ZM28.4602 0.159999L32.5642 16H29.7322L28.7722 11.968H24.0682L23.1322 16H20.4922L24.8842 0.159999H28.4602ZM24.5002 10.192H28.3642L26.4202 1.96L24.5002 10.192ZM42.6425 0.159999L42.4745 1.936H38.7785V16H35.9705V1.936H32.2025V0.159999H42.6425ZM46.4433 0.159999V16H43.6353V0.159999H46.4433ZM57.9467 16L51.5867 5.152V16H49.3307V0.159999H51.4667L57.8267 11.008V0.159999H60.0827V16H57.9467ZM73.3393 9.424C73.3393 11.04 73.1953 12.36 72.9073 13.384C72.6353 14.392 72.1233 15.168 71.3713 15.712C70.6193 16.256 69.5313 16.528 68.1073 16.528C66.7313 16.528 65.6593 16.304 64.8913 15.856C64.1393 15.392 63.6113 14.704 63.3073 13.792C63.0033 12.88 62.8513 11.688 62.8513 10.216V0.159999H65.6593V9.952C65.6593 11.008 65.7073 11.872 65.8033 12.544C65.9153 13.2 66.1633 13.752 66.5473 14.2C66.9313 14.632 67.5153 14.848 68.2993 14.848C69.0833 14.848 69.6673 14.616 70.0513 14.152C70.4353 13.672 70.6753 13.08 70.7713 12.376C70.8673 11.672 70.9153 10.776 70.9153 9.688V0.159999H73.3393V9.424ZM90.7123 0.159999V16H87.9043V2.776L84.0643 16H82.1923L78.3523 2.728V16H76.0963V0.159999H80.3203L83.5123 11.56L86.6803 0.159999H90.7123Z" fill="white"/>
</svg>
