<svg width="64" height="60" viewBox="0 0 64 60" fill="none" xmlns="http://www.w3.org/2000/svg">
<path d="M31.049 0.927034C31.3483 0.00572366 32.6517 0.00572795 32.9511 0.927039L39.6335 21.4934C39.7674 21.9054 40.1513 22.1844 40.5846 22.1844L62.2093 22.1844C63.1781 22.1844 63.5808 23.424 62.7971 23.9934L45.3023 36.7041C44.9518 36.9588 44.8052 37.4101 44.939 37.8222L51.6215 58.3885C51.9208 59.3098 50.8663 60.076 50.0826 59.5066L32.5878 46.7959C32.2373 46.5412 31.7627 46.5412 31.4123 46.7959L13.9174 59.5066C13.1337 60.076 12.0793 59.3098 12.3786 58.3885L19.061 37.8222C19.1949 37.4101 19.0482 36.9588 18.6978 36.7041L1.20295 23.9934C0.419235 23.424 0.822014 22.1844 1.79074 22.1844L23.4155 22.1844C23.8487 22.1844 24.2327 21.9054 24.3666 21.4934L31.049 0.927034Z" fill="#E9E121"/>
</svg>
