<svg width="173" height="61" viewBox="0 0 173 61" fill="none" xmlns="http://www.w3.org/2000/svg">
<path d="M31.049 0.927034C31.3483 0.00572366 32.6517 0.00572795 32.9511 0.927039L39.6335 21.4934C39.7674 21.9054 40.1513 22.1844 40.5846 22.1844L62.2093 22.1844C63.1781 22.1844 63.5808 23.424 62.7971 23.9934L45.3023 36.7041C44.9518 36.9588 44.8052 37.4101 44.939 37.8222L51.6215 58.3885C51.9208 59.3098 50.8663 60.076 50.0826 59.5066L32.5878 46.7959C32.2373 46.5412 31.7627 46.5412 31.4123 46.7959L13.9174 59.5066C13.1337 60.076 12.0793 59.3098 12.3786 58.3885L19.061 37.8222C19.1949 37.4101 19.0482 36.9588 18.6978 36.7041L1.20295 23.9934C0.419235 23.424 0.822014 22.1844 1.79074 22.1844L23.4155 22.1844C23.8487 22.1844 24.2327 21.9054 24.3666 21.4934L31.049 0.927034Z" fill="#E9E121"/>
<path d="M89.64 46.624C89.64 48.016 89.232 49.144 88.416 50.008C87.6 50.856 86.504 51.28 85.128 51.28C84.616 51.28 84.168 51.2 83.784 51.04C83.4 50.864 83.208 50.576 83.208 50.176C84.424 50.176 85.32 49.896 85.896 49.336C86.472 48.776 86.76 47.904 86.76 46.72C86.76 45.712 86.512 44.968 86.016 44.488C85.536 43.992 84.792 43.744 83.784 43.744C83.288 43.744 82.776 43.784 82.248 43.864V58H79.44V42.256C81.328 42.128 82.832 42.064 83.952 42.064C85.776 42.064 87.176 42.424 88.152 43.144C89.144 43.848 89.64 45.008 89.64 46.624ZM91.3228 42.16H94.1308V56.224H99.3628L99.1948 58H91.3228V42.16ZM107.46 42.16L111.564 58H108.732L107.772 53.968H103.068L102.132 58H99.4922L103.884 42.16H107.46ZM103.5 52.192H107.364L105.42 43.96L103.5 52.192ZM121.643 42.16L121.475 43.936H117.779V58H114.971V43.936H111.203V42.16H121.643ZM125.443 42.16V58H122.635V42.16H125.443ZM136.947 58L130.587 47.152V58H128.331V42.16H130.467L136.827 53.008V42.16H139.083V58H136.947ZM152.339 51.424C152.339 53.04 152.195 54.36 151.907 55.384C151.635 56.392 151.123 57.168 150.371 57.712C149.619 58.256 148.531 58.528 147.107 58.528C145.731 58.528 144.659 58.304 143.891 57.856C143.139 57.392 142.611 56.704 142.307 55.792C142.003 54.88 141.851 53.688 141.851 52.216V42.16H144.659V51.952C144.659 53.008 144.707 53.872 144.803 54.544C144.915 55.2 145.163 55.752 145.547 56.2C145.931 56.632 146.515 56.848 147.299 56.848C148.083 56.848 148.667 56.616 149.051 56.152C149.435 55.672 149.675 55.08 149.771 54.376C149.867 53.672 149.915 52.776 149.915 51.688V42.16H152.339V51.424ZM169.712 42.16V58H166.904V44.776L163.064 58H161.192L157.352 44.728V58H155.096V42.16H159.32L162.512 53.56L165.68 42.16H169.712Z" fill="white"/>
<path d="M89.712 0.36C92.464 0.36 94.672 0.888 96.336 1.944C98.032 3 98.88 4.696 98.88 7.032C98.88 8.184 98.544 9.128 97.872 9.864C97.2 10.568 96.288 10.92 95.136 10.92C94.016 10.92 93.184 10.664 92.64 10.152C92.896 9.448 93.024 8.648 93.024 7.752C93.024 4.936 91.776 3.528 89.28 3.528C88.064 3.528 87.104 3.832 86.4 4.44C85.728 5.016 85.392 5.88 85.392 7.032C85.392 8.088 85.664 9.048 86.208 9.912C86.752 10.776 87.424 11.544 88.224 12.216C89.056 12.888 90.176 13.704 91.584 14.664C93.248 15.784 94.576 16.792 95.568 17.688C96.592 18.552 97.456 19.608 98.16 20.856C98.864 22.072 99.216 23.48 99.216 25.08C99.216 27.928 98.24 30.136 96.288 31.704C94.336 33.272 91.808 34.056 88.704 34.056C85.888 34.056 83.552 33.496 81.696 32.376C79.872 31.224 78.96 29.448 78.96 27.048C78.96 25.896 79.296 24.968 79.968 24.264C80.64 23.528 81.536 23.16 82.656 23.16C83.776 23.16 84.608 23.416 85.152 23.928C84.928 24.568 84.816 25.368 84.816 26.328C84.816 29.368 86.256 30.888 89.136 30.888C90.544 30.888 91.696 30.504 92.592 29.736C93.488 28.936 93.936 27.864 93.936 26.52C93.936 25.464 93.664 24.504 93.12 23.64C92.576 22.776 91.888 22.008 91.056 21.336C90.256 20.664 89.152 19.848 87.744 18.888C86.08 17.768 84.736 16.776 83.712 15.912C82.72 15.016 81.872 13.96 81.168 12.744C80.464 11.496 80.112 10.072 80.112 8.472C80.112 5.912 81.008 3.928 82.8 2.52C84.624 1.08 86.928 0.36 89.712 0.36ZM120.801 1.32L120.465 4.872H113.073V33H107.457V4.872H99.9207V1.32H120.801ZM135.842 1.32L144.05 33H138.386L136.466 24.936H127.058L125.186 33H119.906L128.69 1.32H135.842ZM127.922 21.384H135.65L131.762 4.92L127.922 21.384ZM167.327 10.008C167.327 12.184 166.767 14.04 165.647 15.576C164.559 17.112 163.055 18.152 161.135 18.696L169.487 33H163.343L154.799 17.832C154.607 17.48 154.511 17.16 154.511 16.872C156.911 16.872 158.687 16.344 159.839 15.288C160.991 14.2 161.567 12.504 161.567 10.2C161.567 8.28 161.071 6.856 160.079 5.928C159.119 4.968 157.631 4.488 155.615 4.488C154.623 4.488 153.599 4.568 152.543 4.728V33H146.927V1.512C150.703 1.256 153.711 1.128 155.951 1.128C163.535 1.128 167.327 4.088 167.327 10.008Z" fill="white"/>
</svg>
