<svg width="92" height="35" viewBox="0 0 92 35" fill="none" xmlns="http://www.w3.org/2000/svg">
<path d="M11.712 0.36C14.464 0.36 16.672 0.888 18.336 1.944C20.032 3 20.88 4.696 20.88 7.032C20.88 8.184 20.544 9.128 19.872 9.864C19.2 10.568 18.288 10.92 17.136 10.92C16.016 10.92 15.184 10.664 14.64 10.152C14.896 9.448 15.024 8.648 15.024 7.752C15.024 4.936 13.776 3.528 11.28 3.528C10.064 3.528 9.10403 3.832 8.40003 4.44C7.72803 5.016 7.39203 5.88 7.39203 7.032C7.39203 8.088 7.66403 9.048 8.20803 9.912C8.75203 10.776 9.42403 11.544 10.224 12.216C11.056 12.888 12.176 13.704 13.584 14.664C15.248 15.784 16.576 16.792 17.568 17.688C18.592 18.552 19.456 19.608 20.16 20.856C20.864 22.072 21.216 23.48 21.216 25.08C21.216 27.928 20.24 30.136 18.288 31.704C16.336 33.272 13.808 34.056 10.704 34.056C7.88803 34.056 5.55203 33.496 3.69603 32.376C1.87203 31.224 0.960031 29.448 0.960031 27.048C0.960031 25.896 1.29603 24.968 1.96803 24.264C2.64003 23.528 3.53603 23.16 4.65603 23.16C5.77603 23.16 6.60803 23.416 7.15203 23.928C6.92803 24.568 6.81603 25.368 6.81603 26.328C6.81603 29.368 8.25603 30.888 11.136 30.888C12.544 30.888 13.696 30.504 14.592 29.736C15.488 28.936 15.936 27.864 15.936 26.52C15.936 25.464 15.664 24.504 15.12 23.64C14.576 22.776 13.888 22.008 13.056 21.336C12.256 20.664 11.152 19.848 9.74403 18.888C8.08003 17.768 6.73603 16.776 5.71203 15.912C4.72003 15.016 3.87203 13.96 3.16803 12.744C2.46403 11.496 2.11203 10.072 2.11203 8.472C2.11203 5.912 3.00803 3.928 4.80003 2.52C6.62403 1.08 8.92803 0.36 11.712 0.36ZM42.8007 1.32L42.4647 4.872H35.0727V33H29.4567V4.872H21.9207V1.32H42.8007ZM57.8423 1.32L66.0503 33H60.3863L58.4663 24.936H49.0583L47.1863 33H41.9063L50.6903 1.32H57.8423ZM49.9223 21.384H57.6503L53.7623 4.92L49.9223 21.384ZM89.3269 10.008C89.3269 12.184 88.7669 14.04 87.6469 15.576C86.5589 17.112 85.0549 18.152 83.1349 18.696L91.4869 33H85.3429L76.7989 17.832C76.6069 17.48 76.5109 17.16 76.5109 16.872C78.9109 16.872 80.6869 16.344 81.8389 15.288C82.9909 14.2 83.5669 12.504 83.5669 10.2C83.5669 8.28 83.0709 6.856 82.0789 5.928C81.1189 4.968 79.6309 4.488 77.6149 4.488C76.6229 4.488 75.5989 4.568 74.5429 4.728V33H68.9269V1.512C72.7029 1.256 75.7109 1.128 77.9509 1.128C85.5349 1.128 89.3269 4.088 89.3269 10.008Z" fill="white"/>
</svg>
